REM MD5 b0c497c88708afaefb3c118a6a8b5f3a
FILE "Gundam the Battle Master (Japan) (Demo 1).bin" BINARY
  TRACK 01 MODE2/2352
    INDEX 01 00:00:00
  TRACK 02 AUDIO
    INDEX 00 00:36:38
    INDEX 01 00:38:38
  TRACK 03 AUDIO
    INDEX 00 02:11:09
    INDEX 01 02:13:09
  TRACK 04 AUDIO
    INDEX 00 03:49:71
    INDEX 01 03:51:71
  TRACK 05 AUDIO
    INDEX 00 05:50:39
    INDEX 01 05:52:39
REM LEADOUT 09:22:39
